<?xml version="1.0" standalone="no"?>
<!DOCTYPE svg PUBLIC "-//W3C//DTD SVG 20010904//EN"
 "http://www.w3.org/TR/2001/REC-SVG-20010904/DTD/svg10.dtd">
<svg version="1.0" xmlns="http://www.w3.org/2000/svg"
 width="1417.000000pt" height="1417.000000pt" viewBox="0 0 1417.000000 1417.000000"
 preserveAspectRatio="xMidYMid meet">

<g transform="translate(0.000000,1417.000000) scale(0.100000,-0.100000)"
fill="#000000" stroke="none">
<path d="M9515 8449 c-39 -20 -181 -100 -545 -304 -96 -55 -228 -128 -292
-163 -65 -35 -118 -68 -118 -74 0 -6 13 -34 30 -63 68 -120 141 -337 176 -530
27 -145 25 -409 -4 -566 -98 -535 -431 -982 -922 -1242 -166 -87 -391 -157
-557 -172 l-73 -7 1 -77 c0 -42 4 -125 9 -186 4 -60 15 -231 24 -380 9 -148
19 -312 22 -362 l6 -93 35 0 c74 0 334 44 478 80 534 135 1040 438 1403 839
676 748 913 1770 636 2741 -65 227 -219 580 -253 580 -9 0 -34 -9 -56 -21z"/>
<path d="M4516 8392 c-176 -350 -283 -750 -305 -1142 -40 -692 165 -1361 583
-1910 408 -536 1025 -924 1686 -1059 121 -25 308 -51 364 -51 l43 0 6 88 c3
48 17 254 31 457 13 204 27 409 29 457 l5 87 -27 5 c-14 3 -57 8 -96 11 -106
10 -296 61 -425 114 -420 173 -755 505 -940 931 -167 386 -176 861 -23 1270
19 52 51 124 69 159 19 35 34 74 34 87 0 31 -42 63 -168 130 -106 56 -151 81
-497 271 -248 136 -300 163 -319 163 -9 0 -29 -27 -50 -68z"/>
</g>
</svg>
