<?xml version="1.0" standalone="no"?>
<!DOCTYPE svg PUBLIC "-//W3C//DTD SVG 20010904//EN"
 "http://www.w3.org/TR/2001/REC-SVG-20010904/DTD/svg10.dtd">
<svg version="1.0" xmlns="http://www.w3.org/2000/svg"
 width="1417.000000pt" height="1417.000000pt" viewBox="0 0 1417.000000 1417.000000"
 preserveAspectRatio="xMidYMid meet">

<g transform="translate(0.000000,1417.000000) scale(0.100000,-0.100000)"
fill="#000000" stroke="none">
<path d="M6820 9943 c-705 -70 -1304 -352 -1785 -838 -134 -135 -225 -245
-225 -272 0 -20 43 -59 278 -249 313 -251 367 -295 473 -381 63 -51 121 -93
130 -93 9 0 29 17 45 38 80 105 295 289 439 374 178 106 377 181 585 221 94
18 150 21 310 21 172 0 210 -3 321 -27 135 -28 292 -80 404 -131 185 -86 431
-272 557 -422 34 -41 68 -74 76 -74 15 0 33 14 282 215 233 188 374 302 508
410 66 52 112 96 112 107 0 47 -300 355 -491 505 -222 173 -519 338 -779 433
-209 76 -478 137 -709 160 -95 9 -449 12 -531 3z"/>
<path d="M9515 8449 c-39 -20 -181 -100 -545 -304 -96 -55 -228 -128 -292
-163 -65 -35 -118 -68 -118 -74 0 -6 13 -34 30 -63 68 -120 141 -337 176 -530
27 -145 25 -409 -4 -566 -98 -535 -431 -982 -922 -1242 -166 -87 -391 -157
-557 -172 l-73 -7 1 -77 c0 -42 4 -125 9 -186 4 -60 15 -231 24 -380 9 -148
19 -312 22 -362 l6 -93 35 0 c74 0 334 44 478 80 534 135 1040 438 1403 839
676 748 913 1770 636 2741 -65 227 -219 580 -253 580 -9 0 -34 -9 -56 -21z"/>
<path d="M4516 8392 c-176 -350 -283 -750 -305 -1142 -40 -692 165 -1361 583
-1910 408 -536 1025 -924 1686 -1059 121 -25 308 -51 364 -51 l43 0 6 88 c3
48 17 254 31 457 13 204 27 409 29 457 l5 87 -27 5 c-14 3 -57 8 -96 11 -106
10 -296 61 -425 114 -420 173 -755 505 -940 931 -167 386 -176 861 -23 1270
19 52 51 124 69 159 19 35 34 74 34 87 0 31 -42 63 -168 130 -106 56 -151 81
-497 271 -248 136 -300 163 -319 163 -9 0 -29 -27 -50 -68z"/>
<path d="M6888 8204 c-464 -72 -831 -425 -934 -899 -23 -108 -23 -330 0 -440
52 -243 152 -425 326 -595 148 -144 313 -237 517 -291 101 -27 326 -37 444
-19 379 55 718 317 871 671 157 365 115 774 -113 1105 -59 85 -201 225 -288
283 -246 166 -533 231 -823 185z"/>
</g>
</svg>
