<?xml version="1.0" standalone="no"?>
<!DOCTYPE svg PUBLIC "-//W3C//DTD SVG 20010904//EN"
 "http://www.w3.org/TR/2001/REC-SVG-20010904/DTD/svg10.dtd">
<svg version="1.0" xmlns="http://www.w3.org/2000/svg"
 width="1417.000000pt" height="1417.000000pt" viewBox="0 0 1417.000000 1417.000000"
 preserveAspectRatio="xMidYMid meet">

<g transform="translate(0.000000,1417.000000) scale(0.100000,-0.100000)"
fill="#000000" stroke="none">
<path d="M10613 9847 c-35 -29 -113 -92 -174 -142 -62 -49 -131 -106 -155
-125 -24 -19 -116 -93 -204 -165 -89 -71 -228 -184 -310 -250 -82 -66 -221
-178 -310 -250 -89 -71 -227 -183 -307 -247 -79 -65 -145 -118 -147 -118 -2 0
-47 49 -99 109 -95 107 -270 270 -377 351 -334 253 -778 428 -1190 470 -262
27 -499 20 -735 -21 -76 -13 -323 -77 -347 -90 -10 -5 -46 -18 -80 -29 -77
-24 -315 -140 -423 -206 -44 -27 -115 -76 -159 -109 -43 -33 -90 -68 -104 -77
-76 -51 -312 -291 -375 -382 l-18 -26 -62 50 c-223 182 -407 332 -547 445 -89
72 -234 189 -323 262 -89 72 -231 187 -314 255 -84 67 -201 163 -260 212 -133
109 -146 116 -174 90 -84 -75 -377 -531 -364 -566 3 -8 31 -27 63 -42 61 -29
458 -241 547 -291 29 -16 176 -97 326 -179 651 -353 829 -453 869 -487 l42
-35 -62 -124 c-73 -146 -127 -283 -159 -400 -13 -47 -27 -95 -31 -107 -5 -12
-18 -81 -30 -155 -11 -73 -25 -161 -30 -194 -13 -79 -13 -424 0 -495 5 -30 19
-115 30 -189 36 -230 105 -437 224 -673 97 -192 173 -306 343 -516 68 -84 219
-224 345 -321 164 -126 172 -131 318 -214 280 -158 612 -263 934 -295 54 -6
102 -14 106 -18 6 -8 -9 -336 -30 -628 -5 -77 -16 -248 -25 -380 -8 -132 -21
-348 -30 -480 -8 -132 -19 -274 -24 -315 -13 -98 -13 -281 -1 -300 8 -13 52
-15 294 -15 215 0 288 3 298 13 10 10 9 89 -5 400 -10 213 -22 405 -27 427 -5
22 -17 209 -27 415 -9 206 -20 429 -25 495 -4 66 -10 180 -14 253 l-6 132 39
0 c99 1 359 55 523 110 238 79 457 191 682 350 100 71 374 331 461 438 185
228 359 553 440 822 82 272 102 420 102 750 -1 249 -7 337 -35 455 -5 22 -19
81 -30 130 -12 50 -33 126 -47 170 -37 114 -135 341 -172 399 -17 28 -31 55
-31 62 0 6 60 44 133 84 72 40 177 98 232 129 55 30 112 62 127 71 15 8 117
64 225 124 109 60 223 124 253 142 30 18 141 80 245 137 105 58 222 123 260
145 39 22 140 79 226 126 86 47 163 93 170 102 11 13 9 24 -16 67 -15 29 -37
63 -47 77 -11 14 -39 57 -63 95 -99 157 -239 345 -258 345 -6 0 -40 -24 -74
-53z"/>
</g>
</svg>
