<?xml version="1.0" standalone="no"?>
<!DOCTYPE svg PUBLIC "-//W3C//DTD SVG 20010904//EN"
 "http://www.w3.org/TR/2001/REC-SVG-20010904/DTD/svg10.dtd">
<svg version="1.0" xmlns="http://www.w3.org/2000/svg"
 width="645.000000pt" height="645.000000pt" viewBox="0 0 645.000000 645.000000"
 preserveAspectRatio="xMidYMid meet">

<g transform="translate(0.000000,645.000000) scale(0.100000,-0.100000)"
fill="#000000" stroke="none">
<path d="M2926 6399 c-400 -40 -754 -142 -1111 -319 -370 -183 -627 -373 -927
-688 -334 -350 -608 -843 -740 -1332 -21 -78 -26 -96 -51 -220 -79 -384 -78
-865 2 -1255 194 -948 827 -1772 1698 -2209 291 -145 607 -246 943 -301 122
-20 533 -38 670 -30 657 40 1280 281 1805 699 128 101 378 352 482 481 306
382 518 817 625 1280 57 249 78 434 78 715 0 315 -24 511 -100 806 -111 432
-311 832 -598 1194 -98 123 -370 395 -492 491 -437 345 -923 564 -1457 655
-81 14 -184 27 -228 30 -152 10 -510 12 -599 3z m624 -130 c408 -46 840 -185
1170 -376 281 -163 463 -303 688 -531 158 -161 350 -411 456 -595 107 -187
239 -493 286 -662 95 -343 122 -541 122 -880 -1 -286 -19 -452 -82 -725 -74
-321 -246 -710 -441 -995 -496 -726 -1261 -1198 -2134 -1316 -204 -27 -592
-27 -790 0 -569 80 -1070 293 -1512 643 -174 138 -366 331 -498 502 -16 22
-39 51 -51 65 -71 88 -233 356 -293 486 -82 174 -99 218 -152 378 -107 326
-153 616 -153 967 0 324 28 524 124 875 82 304 286 701 507 989 86 112 249
291 342 374 47 42 88 79 91 82 20 22 172 139 250 192 380 262 816 437 1260
507 36 5 85 13 110 17 67 11 379 21 500 17 58 -2 148 -8 200 -14z"/>
<path d="M2685 5968 c-335 -80 -520 -146 -748 -266 -203 -107 -416 -252 -561
-381 -115 -101 -291 -289 -363 -387 -91 -123 -121 -168 -186 -276 -119 -200
-193 -363 -272 -603 -96 -291 -144 -724 -116 -1050 14 -158 24 -208 53 -247
17 -24 26 -28 70 -28 29 0 65 4 82 9 38 12 156 42 281 73 98 23 91 14 -50 -60
-134 -70 -236 -130 -302 -177 -20 -14 -23 -25 -23 -83 0 -75 8 -109 52 -232
278 -770 926 -1405 1708 -1672 353 -120 734 -174 1067 -149 166 12 205 17 373
48 492 90 1002 349 1364 693 277 262 443 485 605 811 133 267 180 426 157 529
-12 52 -16 57 -77 98 -35 23 -118 72 -184 108 -66 36 -124 70 -130 76 -13 13
49 6 135 -16 36 -9 83 -21 105 -27 22 -6 54 -14 70 -20 17 -5 52 -9 78 -10 50
-2 78 18 99 71 35 90 47 471 23 700 -22 205 -37 284 -104 535 -5 17 -22 68
-39 115 -95 268 -228 518 -390 735 -279 372 -577 626 -967 825 -234 120 -460
200 -706 250 -102 21 -109 21 -163 6 -64 -19 -63 -17 -132 -206 -20 -52 -49
-131 -66 -175 -16 -44 -39 -104 -49 -132 -10 -29 -28 -77 -38 -105 -11 -29
-41 -113 -68 -187 -26 -74 -53 -136 -59 -138 -6 -2 -22 31 -37 74 -14 43 -40
116 -57 163 -18 47 -36 96 -40 110 -5 14 -24 68 -43 120 -155 422 -157 427
-217 468 -35 23 -69 26 -135 10z m-630 -2381 c147 -128 374 -251 533 -290 l92
-22 0 -111 c0 -257 -69 -594 -184 -895 -73 -194 -68 -186 -137 -194 -59 -7
-60 -7 -102 32 -29 27 -56 42 -83 46 -34 6 -52 20 -129 103 -50 53 -102 110
-117 127 -16 16 -28 31 -28 34 0 3 14 21 31 41 82 94 103 232 54 367 -14 39
-39 97 -55 130 -47 98 -180 266 -247 313 -33 23 -43 42 -22 42 6 0 23 -8 37
-19 142 -100 442 -189 497 -148 20 15 20 16 -6 44 -93 103 -304 490 -285 522
3 5 23 -7 43 -26 21 -19 69 -62 108 -96z m1006 -800 c236 -425 273 -488 343
-572 117 -141 217 -197 376 -211 57 -5 100 -15 131 -30 38 -19 63 -24 128 -24
45 0 81 -4 81 -9 0 -19 -90 -130 -110 -136 -29 -9 -112 3 -190 28 -61 20 -136
24 -264 14 -25 -2 -31 3 -37 28 -5 16 -16 36 -26 42 -25 19 -102 16 -169 -8
-32 -11 -66 -22 -75 -25 -12 -4 -25 10 -47 49 -70 124 -117 152 -206 122 -26
-9 -50 -14 -53 -11 -3 3 2 38 11 78 30 129 40 323 29 558 -5 118 -7 218 -5
223 7 15 21 -5 83 -116z m561 -275 c154 -140 331 -284 465 -380 68 -48 123
-92 123 -98 0 -5 -13 -23 -30 -39 l-29 -28 -78 22 c-85 25 -157 61 -187 95
-136 153 -359 476 -328 476 6 0 34 -22 64 -48z m818 -585 c182 -77 348 -75
493 6 l38 21 23 -25 c33 -33 118 -185 157 -278 17 -42 39 -115 47 -164 l16
-88 -85 -85 c-327 -332 -761 -584 -1214 -704 -371 -98 -793 -116 -1160 -50
-33 6 -75 14 -93 17 -65 12 -53 29 58 84 261 128 315 151 495 211 227 74 392
116 584 149 57 10 83 20 108 42 18 16 33 33 33 38 0 31 -298 -18 -520 -86
-239 -72 -367 -119 -500 -181 -55 -26 -103 -44 -107 -40 -14 14 95 397 154
541 76 186 79 190 130 223 80 51 283 149 365 176 154 50 250 53 367 11 54 -19
221 -20 308 -1 67 14 128 45 122 61 -2 6 -32 9 -66 8 -37 0 -63 3 -63 9 0 6
14 26 30 45 17 18 44 61 60 93 l30 60 78 -39 c42 -22 93 -46 112 -54z m-1357
38 c14 -14 36 -49 50 -78 40 -86 52 -89 177 -53 30 9 72 16 93 16 73 0 42 -30
-109 -105 -78 -38 -171 -90 -207 -114 -62 -40 -70 -50 -124 -150 -31 -58 -64
-119 -73 -136 -9 -16 -27 -68 -39 -115 -25 -98 -43 -130 -72 -130 -32 0 -140
-59 -177 -97 -47 -49 -84 -135 -80 -187 5 -63 26 -51 80 44 47 83 97 138 150
166 15 8 29 10 32 5 3 -4 -16 -77 -42 -162 l-47 -153 -83 -48 c-46 -26 -94
-48 -107 -48 -27 0 -164 45 -177 58 -5 5 15 45 50 98 74 112 188 316 291 522
136 272 156 321 216 534 l28 98 60 30 c33 16 66 30 72 30 7 0 24 -11 38 -25z
m-791 -197 c2 -6 -17 -75 -44 -152 -41 -123 -66 -214 -99 -371 -8 -40 -52
-319 -64 -407 -5 -38 -10 -48 -25 -48 -20 0 -145 68 -197 106 -39 29 -49 78
-36 176 l8 66 109 101 c60 56 115 101 122 101 17 0 48 46 39 59 -3 6 -20 14
-38 19 -27 7 -33 13 -35 42 -2 18 -1 48 3 66 5 30 10 33 50 39 58 9 80 35 78
90 -2 47 22 78 82 109 36 19 42 20 47 4z"/>
<path d="M2350 2864 c-83 -62 -149 -98 -197 -108 -42 -9 -60 -31 -43 -51 7 -8
23 -15 36 -15 25 0 33 -27 15 -45 -6 -6 -13 -29 -17 -52 -12 -75 24 -47 79 63
19 38 38 59 73 79 89 52 176 148 159 175 -11 18 -29 10 -105 -46z"/>
</g>
</svg>
