<?xml version="1.0" standalone="no"?>
<!DOCTYPE svg PUBLIC "-//W3C//DTD SVG 20010904//EN"
 "http://www.w3.org/TR/2001/REC-SVG-20010904/DTD/svg10.dtd">
<svg version="1.0" xmlns="http://www.w3.org/2000/svg"
 width="1417.000000pt" height="1417.000000pt" viewBox="0 0 1417.000000 1417.000000"
 preserveAspectRatio="xMidYMid meet">

<g transform="translate(0.000000,1417.000000) scale(0.100000,-0.100000)"
fill="#000000" stroke="none">
<path d="M0 7085 l0 -7085 7085 0 7085 0 0 7085 0 7085 -7085 0 -7085 0 0
-7085z m2783 4626 c102 -58 632 -354 675 -376 18 -10 40 -8 115 8 78 17 129
21 327 21 209 1 247 -2 345 -22 470 -100 868 -365 1128 -754 76 -115 153 -267
197 -394 l32 -91 180 -113 c213 -133 528 -325 580 -354 43 -24 47 -40 16 -59
-13 -8 -75 -46 -138 -84 -63 -39 -233 -143 -376 -232 l-261 -161 -33 -91
c-145 -406 -431 -747 -799 -953 -202 -114 -430 -189 -651 -216 -173 -21 -479
-5 -599 31 -37 11 -41 9 -257 -111 -120 -67 -266 -148 -324 -180 -58 -32 -141
-78 -185 -103 -44 -25 -83 -43 -86 -39 -4 4 -16 219 -29 477 -12 259 -25 475
-28 480 -3 6 -27 35 -53 65 -26 30 -77 100 -114 155 -347 520 -390 1212 -111
1783 50 102 176 292 242 365 24 27 44 57 44 66 -1 47 42 918 45 929 3 6 7 12
10 12 3 0 52 -26 108 -59z m6466 -3618 c31 -84 68 -239 82 -340 17 -128 7
-403 -20 -526 -23 -106 -75 -273 -93 -294 -8 -11 -292 -13 -1484 -13 l-1473 0
-12 21 c-23 43 -68 192 -91 297 -19 92 -23 136 -22 312 0 174 3 220 22 308 25
115 69 261 84 280 8 9 320 12 1498 12 l1488 0 21 -57z"/>
<path d="M3799 10649 c-156 -16 -335 -83 -479 -177 -72 -48 -215 -191 -267
-267 -123 -182 -183 -381 -183 -606 0 -403 219 -761 576 -942 69 -35 214 -82
299 -98 87 -16 269 -16 355 0 344 64 637 285 776 586 74 160 97 265 98 450 0
191 -30 326 -109 485 -79 158 -202 296 -352 397 -146 97 -298 153 -475 172
-107 12 -128 12 -239 0z"/>
</g>
</svg>
