<?xml version="1.0" standalone="no"?>
<!DOCTYPE svg PUBLIC "-//W3C//DTD SVG 20010904//EN"
 "http://www.w3.org/TR/2001/REC-SVG-20010904/DTD/svg10.dtd">
<svg version="1.0" xmlns="http://www.w3.org/2000/svg"
 width="1417.000000pt" height="1417.000000pt" viewBox="0 0 1417.000000 1417.000000"
 preserveAspectRatio="xMidYMid meet">

<g transform="translate(0.000000,1417.000000) scale(0.100000,-0.100000)"
fill="#000000" stroke="none">
<path d="M0 7085 l0 -7085 7085 0 7085 0 0 7085 0 7085 -7085 0 -7085 0 0
-7085z m2759 3496 c25 -16 134 -77 241 -137 234 -129 545 -302 732 -407 85
-48 147 -77 166 -77 16 0 72 9 123 19 164 34 288 44 509 44 233 0 375 -14 565
-58 474 -107 899 -337 1249 -675 308 -298 520 -635 673 -1074 l28 -79 95 -60
c52 -33 133 -83 180 -112 47 -29 180 -111 295 -182 116 -71 242 -148 280 -171
245 -147 340 -209 340 -222 0 -8 -13 -23 -30 -33 -16 -10 -77 -48 -135 -83
-117 -71 -127 -77 -395 -241 -171 -104 -502 -309 -597 -369 -30 -19 -40 -35
-58 -91 -129 -390 -331 -727 -608 -1015 -358 -371 -803 -625 -1295 -739 -206
-48 -338 -62 -582 -63 -229 -1 -355 10 -525 46 -52 11 -104 20 -115 20 -17 0
-194 -96 -750 -407 -27 -15 -125 -70 -218 -121 -92 -51 -177 -100 -189 -109
-13 -8 -32 -15 -44 -15 -20 0 -21 6 -28 128 -12 245 -26 520 -41 852 -20 444
-18 430 -66 488 -353 428 -535 822 -626 1352 -26 154 -26 650 0 800 57 320
133 555 261 807 95 187 210 359 365 545 48 58 46 43 67 493 8 187 19 419 24
515 5 96 12 239 16 318 8 163 10 165 93 113z m9685 -5373 c15 -24 64 -165 89
-258 93 -344 103 -763 27 -1115 -39 -177 -117 -410 -144 -427 -15 -10 -4378
-10 -4393 0 -39 25 -138 367 -175 602 -17 113 -17 536 0 650 32 207 124 543
154 562 7 4 1006 8 2220 8 l2208 0 14 -22z"/>
<path d="M4361 8949 c-96 -9 -252 -44 -351 -80 -520 -188 -897 -628 -1006
-1174 -35 -176 -34 -434 1 -610 151 -747 782 -1265 1540 -1265 130 0 337 25
405 49 14 5 57 19 95 31 452 140 839 526 991 988 61 186 68 239 68 502 0 265
-8 325 -70 510 -88 261 -279 539 -479 699 -349 279 -731 391 -1194 350z"/>
</g>
</svg>
