<?xml version="1.0" standalone="no"?>
<!DOCTYPE svg PUBLIC "-//W3C//DTD SVG 20010904//EN"
 "http://www.w3.org/TR/2001/REC-SVG-20010904/DTD/svg10.dtd">
<svg version="1.0" xmlns="http://www.w3.org/2000/svg"
 width="1417.000000pt" height="1417.000000pt" viewBox="0 0 1417.000000 1417.000000"
 preserveAspectRatio="xMidYMid meet">

<g transform="translate(0.000000,1417.000000) scale(0.100000,-0.100000)"
fill="#000000" stroke="none">
<path d="M7012 12358 c-7 -7 -12 -20 -12 -29 0 -10 -5 -21 -10 -24 -6 -4 -19
-23 -31 -43 -46 -85 -87 -156 -133 -234 -27 -46 -63 -110 -81 -144 -36 -65
-76 -130 -97 -154 -7 -9 -23 -36 -36 -60 -12 -25 -35 -67 -51 -95 -16 -27 -43
-75 -60 -105 -18 -30 -45 -75 -61 -100 -16 -25 -38 -63 -49 -85 -42 -81 -80
-147 -94 -163 -8 -10 -22 -34 -30 -54 -9 -20 -34 -64 -56 -98 -23 -34 -41 -64
-41 -67 0 -2 -16 -28 -35 -57 -19 -29 -35 -57 -35 -62 0 -5 -9 -20 -20 -34
-11 -14 -20 -33 -20 -42 0 -10 -12 -19 -32 -23 -18 -4 -35 -11 -38 -14 -3 -4
-34 -15 -70 -25 -36 -10 -83 -26 -105 -36 -23 -10 -54 -22 -70 -26 -17 -4 -50
-17 -75 -30 -25 -13 -48 -24 -52 -24 -4 0 -46 -18 -93 -40 -47 -22 -89 -40
-94 -40 -5 0 -11 -4 -13 -9 -1 -4 -23 -18 -48 -30 -25 -12 -72 -37 -105 -56
-33 -19 -78 -44 -99 -56 -21 -11 -69 -43 -106 -70 -37 -27 -71 -49 -75 -49 -4
0 -45 -29 -91 -65 -46 -36 -87 -65 -90 -65 -3 0 -15 -11 -26 -25 -11 -14 -24
-25 -30 -25 -6 0 -23 -11 -37 -24 -14 -14 -74 -68 -132 -121 -100 -91 -252
-250 -326 -341 -90 -111 -183 -233 -183 -242 0 -5 -7 -12 -15 -16 -8 -3 -15
-10 -15 -16 0 -6 -26 -48 -57 -93 -32 -45 -66 -98 -76 -117 -10 -19 -31 -57
-47 -85 -27 -48 -127 -247 -155 -310 -7 -16 -25 -55 -38 -85 -14 -30 -33 -80
-42 -110 -10 -30 -21 -59 -25 -65 -4 -5 -18 -46 -30 -90 -12 -44 -26 -84 -30
-90 -4 -5 -17 -55 -29 -110 -12 -55 -26 -109 -31 -120 -11 -26 -27 -115 -36
-190 -3 -33 -11 -65 -16 -72 -20 -25 -40 -310 -41 -583 -1 -291 11 -474 42
-630 11 -52 24 -126 31 -165 6 -38 15 -79 20 -90 5 -11 13 -42 19 -68 10 -43
10 -50 -7 -65 -10 -9 -27 -37 -36 -62 -10 -25 -26 -63 -36 -85 -10 -22 -26
-60 -35 -85 -9 -25 -23 -52 -30 -60 -7 -8 -16 -30 -20 -47 -3 -18 -11 -36 -17
-39 -13 -8 -48 -91 -48 -114 0 -10 -6 -25 -12 -32 -18 -19 -48 -85 -48 -107 0
-10 -9 -30 -21 -45 -11 -14 -25 -43 -31 -63 -6 -21 -19 -48 -29 -62 -11 -13
-19 -30 -19 -37 0 -8 -9 -36 -21 -62 -12 -26 -28 -63 -36 -82 -35 -79 -67
-148 -89 -193 -13 -26 -24 -55 -24 -66 0 -10 -8 -29 -18 -42 -10 -13 -29 -55
-42 -94 -14 -38 -32 -80 -41 -93 -10 -13 -21 -37 -24 -54 -4 -16 -18 -46 -31
-65 -13 -20 -24 -43 -24 -51 0 -9 -6 -23 -13 -31 -7 -9 -21 -36 -31 -61 -10
-25 -24 -58 -31 -75 -37 -82 -55 -129 -55 -140 0 -8 -5 -15 -11 -17 -14 -5
-49 -112 -49 -151 0 -60 12 -67 110 -67 50 0 98 4 108 9 18 10 319 41 462 48
47 2 94 8 105 13 23 9 164 25 355 40 74 6 146 15 160 20 14 5 113 16 220 25
107 9 224 21 260 26 36 6 108 14 160 19 52 5 131 14 174 20 124 16 136 14 196
-30 30 -21 63 -46 72 -55 10 -8 20 -15 23 -15 3 0 30 -18 59 -40 29 -22 56
-40 61 -40 4 0 39 -20 76 -45 38 -25 113 -68 166 -95 54 -28 105 -55 113 -59
39 -22 169 -81 205 -93 22 -7 42 -16 45 -19 3 -3 37 -16 75 -29 39 -13 79 -29
90 -35 11 -7 52 -21 90 -30 39 -9 75 -21 80 -25 6 -4 55 -18 110 -29 55 -12
109 -26 120 -31 11 -6 74 -19 140 -30 66 -10 145 -24 175 -29 219 -39 721 -39
940 0 30 5 109 18 175 29 66 11 127 23 135 28 8 5 62 19 120 32 58 12 110 26
115 31 6 4 42 15 80 25 39 9 79 22 90 29 11 6 52 22 90 35 39 13 72 26 75 29
3 3 23 12 45 20 39 13 174 74 205 91 8 5 59 32 113 60 53 27 128 70 166 95 37
25 72 45 76 45 5 0 40 24 79 53 39 29 87 63 106 74 19 12 46 33 60 46 24 23
25 23 130 10 58 -7 150 -17 205 -22 55 -6 129 -14 165 -20 36 -5 153 -17 260
-26 107 -9 206 -20 220 -25 14 -5 86 -14 160 -20 190 -15 332 -31 355 -40 11
-5 72 -12 135 -16 63 -4 133 -9 155 -11 183 -16 263 -26 277 -34 10 -5 57 -9
104 -9 96 0 113 10 114 63 0 35 -29 127 -46 148 -8 8 -14 20 -14 26 0 12 -69
173 -106 248 -13 28 -24 55 -24 61 0 6 -11 27 -24 47 -13 19 -27 49 -31 65 -3
17 -14 41 -23 54 -10 13 -26 48 -36 78 -10 30 -29 74 -42 97 -13 23 -24 49
-24 57 0 9 -11 37 -24 63 -13 27 -35 73 -48 103 -14 30 -37 80 -51 110 -14 30
-33 78 -42 105 -9 28 -22 57 -30 65 -7 8 -18 32 -23 52 -6 21 -20 50 -31 64
-12 15 -21 36 -21 47 0 11 -13 45 -29 76 -16 31 -34 74 -41 96 -7 22 -21 50
-31 63 -10 13 -21 37 -24 55 -4 18 -13 39 -20 47 -7 8 -21 35 -30 60 -9 25
-25 63 -35 85 -10 22 -26 59 -35 82 -10 23 -26 51 -36 62 -18 19 -18 23 -3 83
39 158 64 293 64 345 0 16 4 33 9 39 44 45 44 1012 0 1095 -5 9 -13 50 -19 90
-16 112 -31 192 -40 214 -5 11 -16 54 -25 95 -16 75 -66 239 -90 295 -7 17
-18 48 -25 70 -12 39 -56 149 -84 210 -38 82 -121 247 -151 300 -19 33 -44 78
-55 99 -12 21 -26 44 -31 50 -25 31 -99 147 -99 156 0 5 -6 13 -14 17 -7 4
-15 13 -17 20 -2 6 -60 82 -129 169 -126 160 -426 471 -481 500 -16 8 -33 23
-39 34 -6 11 -15 20 -20 20 -5 0 -45 28 -87 63 -118 95 -298 215 -448 298 -78
43 -332 169 -342 169 -4 0 -28 11 -53 24 -25 13 -58 26 -75 30 -16 4 -47 16
-70 26 -22 10 -70 26 -107 36 -38 10 -68 21 -68 25 0 4 -18 10 -40 14 -31 5
-40 11 -40 27 0 22 -16 55 -67 135 -18 28 -33 56 -33 61 0 6 -3 12 -8 14 -10
4 -92 142 -92 155 0 6 -10 23 -22 39 -13 16 -32 45 -43 65 -30 56 -122 216
-162 284 -36 60 -74 125 -114 200 -12 22 -29 51 -39 65 -38 56 -90 139 -90
144 0 4 -20 39 -44 79 -24 39 -53 90 -65 112 -12 22 -31 56 -43 75 -11 19 -32
55 -46 80 -13 25 -30 52 -37 60 -7 8 -20 32 -28 53 -13 30 -21 37 -44 37 -16
0 -34 -5 -41 -12z m256 -3319 c381 -42 762 -204 1057 -451 364 -304 600 -714
686 -1194 31 -170 31 -450 0 -618 -125 -693 -575 -1253 -1216 -1513 -355 -145
-745 -180 -1115 -101 -292 62 -585 199 -815 383 -88 70 -252 231 -315 310
-285 357 -440 793 -440 1239 0 418 162 872 432 1209 77 97 234 253 331 328
400 311 913 461 1395 408z"/>
</g>
</svg>
