<?xml version="1.0" standalone="no"?>
<!DOCTYPE svg PUBLIC "-//W3C//DTD SVG 20010904//EN"
 "http://www.w3.org/TR/2001/REC-SVG-20010904/DTD/svg10.dtd">
<svg version="1.0" xmlns="http://www.w3.org/2000/svg"
 width="1417.000000pt" height="1417.000000pt" viewBox="0 0 1417.000000 1417.000000"
 preserveAspectRatio="xMidYMid meet">

<g transform="translate(0.000000,1417.000000) scale(0.100000,-0.100000)"
fill="#000000" stroke="none">
<path d="M6790 10629 c-1016 -83 -1947 -596 -2557 -1407 -280 -371 -505 -851
-613 -1306 -346 -1452 244 -2954 1485 -3783 454 -303 957 -490 1535 -570 178
-25 683 -25 860 0 434 61 803 173 1160 352 455 228 871 564 1184 955 441 552
701 1205 767 1930 15 162 6 566 -15 730 -105 796 -462 1520 -1027 2080 -565
561 -1274 902 -2089 1005 -151 20 -532 27 -690 14z m633 -705 c622 -77 1214
-364 1657 -804 133 -132 256 -278 244 -290 -5 -5 -59 -48 -120 -97 -61 -48
-178 -142 -260 -208 -81 -66 -198 -160 -260 -210 -61 -49 -144 -116 -183 -148
l-72 -58 -46 51 c-26 29 -55 63 -65 76 -34 43 -231 206 -312 259 -94 61 -260
143 -361 179 -217 77 -395 101 -665 92 -196 -6 -309 -27 -497 -92 -294 -101
-580 -302 -771 -543 l-19 -25 -81 65 c-44 35 -158 127 -252 204 -95 77 -202
164 -239 194 -192 155 -311 255 -311 261 0 17 169 207 283 317 482 465 1097
740 1776 793 135 11 402 3 554 -16z m2224 -1601 c182 -379 268 -739 280 -1163
18 -662 -185 -1285 -593 -1822 -98 -129 -368 -401 -494 -498 -412 -318 -873
-514 -1374 -585 -55 -8 -120 -15 -142 -15 l-41 0 -7 58 c-11 89 -34 462 -46
727 -5 132 -12 252 -15 266 -4 26 -2 26 78 38 379 53 721 223 992 495 225 225
365 468 450 778 74 275 71 633 -9 913 -33 117 -98 278 -137 341 -10 17 -19 38
-19 45 0 8 95 67 213 132 116 65 340 189 497 277 157 88 288 159 291 160 3 0
38 -66 76 -147z m-4858 18 c119 -65 317 -174 441 -241 250 -136 320 -179 320
-196 0 -6 -22 -58 -50 -115 -61 -128 -110 -277 -141 -429 -21 -100 -24 -141
-23 -320 0 -182 3 -219 27 -330 109 -515 405 -919 867 -1185 168 -97 431 -179
650 -203 l65 -7 -1 -110 c-1 -61 -7 -173 -12 -250 -10 -120 -23 -335 -39 -635
-3 -41 -8 -78 -11 -82 -21 -21 -409 46 -621 107 -534 153 -1049 496 -1407 935
-244 299 -436 672 -540 1049 -187 678 -116 1393 202 2034 26 53 50 97 52 97 2
0 102 -53 221 -119z"/>
</g>
</svg>
