<?xml version="1.0" standalone="no"?>
<!DOCTYPE svg PUBLIC "-//W3C//DTD SVG 20010904//EN"
 "http://www.w3.org/TR/2001/REC-SVG-20010904/DTD/svg10.dtd">
<svg version="1.0" xmlns="http://www.w3.org/2000/svg"
 width="1417.000000pt" height="1417.000000pt" viewBox="0 0 1417.000000 1417.000000"
 preserveAspectRatio="xMidYMid meet">

<g transform="translate(0.000000,1417.000000) scale(0.100000,-0.100000)"
fill="#000000" stroke="none">
<path d="M6910 10709 c-1101 -79 -2104 -650 -2739 -1559 -65 -93 -221 -348
-221 -361 0 -8 66 -50 260 -169 74 -45 151 -92 170 -105 42 -26 305 -188 480
-295 118 -72 505 -311 597 -369 23 -14 42 -30 43 -36 0 -10 229 -140 235 -133
1 2 13 23 25 48 213 428 611 729 1080 816 145 27 403 25 540 -5 217 -46 409
-129 577 -248 92 -65 243 -203 243 -221 0 -6 -47 -46 -104 -89 -57 -43 -247
-186 -421 -318 -174 -132 -348 -262 -385 -290 -37 -27 -103 -77 -146 -110 -43
-33 -88 -67 -100 -75 -12 -8 -209 -157 -439 -330 -673 -507 -705 -531 -844
-624 -74 -50 -136 -97 -138 -105 -3 -9 -84 -74 -180 -146 -96 -71 -187 -139
-201 -151 -15 -11 -193 -146 -397 -299 -651 -490 -685 -516 -685 -528 0 -7 39
-64 86 -127 567 -755 1406 -1266 2324 -1414 240 -39 357 -49 600 -48 243 0
363 9 595 48 938 157 1766 662 2335 1425 50 66 94 128 100 138 10 20 -9 35
-210 156 -52 32 -140 86 -195 120 -55 34 -161 99 -235 145 -74 45 -151 92
-170 105 -19 12 -147 91 -285 175 -137 84 -272 167 -300 185 -27 17 -106 67
-175 110 -69 43 -154 97 -190 121 -35 24 -73 44 -85 44 -11 0 -81 -53 -160
-121 -242 -208 -366 -290 -541 -359 -471 -184 -971 -132 -1384 145 -108 72
-210 160 -210 181 0 7 33 38 73 68 39 29 90 68 112 85 22 17 50 39 63 49 13 9
37 29 55 43 18 14 57 44 87 67 56 41 99 74 250 191 175 135 707 541 796 606
53 40 336 254 554 421 63 48 207 157 320 242 113 84 214 161 225 170 11 10 47
37 80 62 33 25 116 89 185 141 192 146 450 342 594 452 237 179 429 325 560
425 71 54 131 103 133 109 5 13 -118 177 -223 298 -569 654 -1373 1093 -2224
1214 -275 39 -533 49 -790 30z"/>
</g>
</svg>
